<svg width="135" height="28" viewBox="0 0 135 28" fill="none" xmlns="http://www.w3.org/2000/svg">
<g clip-path="url(#clip0_12340_13820)">
<path d="M13.8488 27.6625C11.3791 27.6625 9.09598 27.0487 6.99957 25.821C4.90316 24.5933 3.24111 22.9277 2.01341 20.8241C0.78572 18.7277 0.171875 16.441 0.171875 13.9641C0.171875 11.4943 0.78572 9.21127 2.01341 7.11486C3.24111 5.01127 4.90316 3.34563 6.99957 2.11793C9.09598 0.883062 11.3791 0.265625 13.8488 0.265625C16.3185 0.265625 18.6016 0.883062 20.698 2.11793C22.8016 3.34563 24.4673 5.01127 25.695 7.11486C26.9298 9.21127 27.5473 11.4943 27.5473 13.9641C27.5473 16.441 26.9298 18.7277 25.695 20.8241C24.4673 22.9205 22.8016 24.5826 20.698 25.8102C18.6016 27.0451 16.3185 27.6625 13.8488 27.6625ZM2.90726 13.9641C2.90726 15.1415 2.91444 16.1215 2.9288 16.9041C2.95034 17.6795 3.00059 18.4513 3.07957 19.2195C3.12982 19.6502 3.25905 19.9482 3.46726 20.1133C3.67546 20.2784 4.00572 20.3825 4.45803 20.4256C7.00675 20.6984 10.137 20.8349 13.8488 20.8349C17.5534 20.8349 20.6693 20.6984 23.1965 20.4256C23.6632 20.3825 24.0042 20.2784 24.2196 20.1133C24.4349 19.9482 24.5678 19.6502 24.618 19.2195C24.6755 18.4513 24.7114 17.6795 24.7257 16.9041C24.7401 16.1215 24.7473 15.1415 24.7473 13.9641C24.7473 12.7867 24.7401 11.8102 24.7257 11.0349C24.7114 10.2595 24.6755 9.48409 24.618 8.7087C24.5678 8.27793 24.4349 7.97999 24.2196 7.81486C24.0042 7.64973 23.6632 7.54563 23.1965 7.50255C20.6693 7.22973 17.5534 7.09332 13.8488 7.09332C10.137 7.09332 7.00675 7.22973 4.45803 7.50255C4.00572 7.54563 3.67546 7.64973 3.46726 7.81486C3.25905 7.97999 3.12982 8.27793 3.07957 8.7087C3.00059 9.48409 2.95034 10.2595 2.9288 11.0349C2.91444 11.8102 2.90726 12.7867 2.90726 13.9641ZM8.31341 13.9641C8.31341 12.9733 8.55752 12.0508 9.04572 11.1964C9.53393 10.342 10.2016 9.66358 11.0488 9.16101C11.896 8.65845 12.8293 8.40716 13.8488 8.40716C14.8683 8.40716 15.8016 8.65845 16.6488 9.16101C17.496 9.66358 18.1637 10.342 18.6519 11.1964C19.1401 12.0508 19.3842 12.9733 19.3842 13.9641C19.3842 14.962 19.1401 15.8882 18.6519 16.7425C18.1637 17.5897 17.496 18.2646 16.6488 18.7672C15.8016 19.2697 14.8683 19.521 13.8488 19.521C12.8293 19.521 11.896 19.2697 11.0488 18.7672C10.2016 18.2646 9.53393 17.5897 9.04572 16.7425C8.55752 15.8882 8.31341 14.962 8.31341 13.9641ZM31.1226 13.8564C31.1226 12.5856 31.4206 11.4261 32.0165 10.3779C32.6124 9.32255 33.4093 8.48973 34.4073 7.87947C35.4124 7.26922 36.4929 6.96409 37.6488 6.96409C38.3524 6.96409 39.0344 7.11845 39.695 7.42716C40.3626 7.73588 40.8939 8.13434 41.2888 8.62255V7.89024C41.2888 7.67486 41.3498 7.50614 41.4719 7.38409C41.5939 7.26204 41.7626 7.20101 41.978 7.20101H43.938C44.1534 7.20101 44.3221 7.26204 44.4442 7.38409C44.5662 7.50614 44.6273 7.67486 44.6273 7.89024V17.8195C44.6273 20.72 44.0062 22.8559 42.7642 24.2272C41.5221 25.5984 39.6878 26.2841 37.2611 26.2841C36.3349 26.2841 35.3729 26.1369 34.375 25.8425C33.3842 25.5482 32.4508 25.121 31.5749 24.561C31.3308 24.4031 31.2088 24.1949 31.2088 23.9364C31.2088 23.8215 31.2447 23.6851 31.3165 23.5272L32.178 21.8256C32.2426 21.7036 32.3252 21.6067 32.4257 21.5349C32.5334 21.4702 32.6447 21.4379 32.7596 21.4379C32.9032 21.4379 33.0467 21.4882 33.1903 21.5887C33.9083 22.0482 34.5867 22.3856 35.2257 22.601C35.8647 22.8164 36.5144 22.9241 37.1749 22.9241C38.4385 22.9241 39.4078 22.5938 40.0826 21.9333C40.7647 21.28 41.1093 20.282 41.1165 18.9395C40.7144 19.3774 40.2083 19.74 39.598 20.0272C38.9878 20.3215 38.3093 20.4687 37.5626 20.4687C36.3708 20.4687 35.2832 20.1887 34.2996 19.6287C33.316 19.0687 32.5406 18.2861 31.9734 17.281C31.4062 16.2759 31.1226 15.1343 31.1226 13.8564ZM34.5473 13.8349C34.5473 14.5169 34.6944 15.1272 34.9888 15.6656C35.2903 16.1969 35.6924 16.6133 36.195 16.9149C36.7047 17.2164 37.2611 17.3672 37.8642 17.3672C38.4744 17.3672 39.0308 17.2164 39.5334 16.9149C40.0432 16.6133 40.4452 16.1969 40.7396 15.6656C41.0339 15.1272 41.1811 14.5169 41.1811 13.8349C41.1811 13.1384 41.0339 12.5246 40.7396 11.9933C40.4452 11.4549 40.0432 11.0384 39.5334 10.7441C39.0308 10.4497 38.4744 10.3025 37.8642 10.3025C37.2611 10.3025 36.7047 10.4497 36.195 10.7441C35.6924 11.0384 35.2903 11.4549 34.9888 11.9933C34.6944 12.5318 34.5473 13.1456 34.5473 13.8349ZM46.415 2.50563C46.415 2.16819 46.4867 1.90614 46.6303 1.71947C46.7811 1.53281 46.9821 1.43947 47.2334 1.43947C47.4129 1.43947 47.6067 1.48614 47.8149 1.57947L48.9134 2.07486C49.2652 2.23999 49.5201 2.4446 49.678 2.6887C49.8432 2.92563 49.9257 3.23075 49.9257 3.60409V18.6379C49.9257 19.0041 49.8432 19.3092 49.678 19.5533C49.5129 19.7974 49.258 20.002 48.9134 20.1672L47.8149 20.641C47.5924 20.7415 47.3985 20.7918 47.2334 20.7918C46.9821 20.7918 46.7811 20.6949 46.6303 20.501C46.4867 20.3143 46.415 20.0523 46.415 19.7149V2.50563ZM51.5196 13.8564C51.5196 12.5569 51.8283 11.3831 52.4457 10.3349C53.0632 9.27947 53.8924 8.45383 54.9334 7.85793C55.9816 7.26204 57.1196 6.96409 58.3473 6.96409C59.5893 6.96409 60.7273 7.26204 61.7611 7.85793C62.8021 8.45383 63.6278 9.27947 64.238 10.3349C64.8483 11.3831 65.1534 12.5569 65.1534 13.8564C65.1534 15.1631 64.8447 16.3441 64.2273 17.3995C63.617 18.4477 62.7914 19.2697 61.7503 19.8656C60.7093 20.4687 59.5749 20.7702 58.3473 20.7702C57.098 20.7702 55.9529 20.4723 54.9119 19.8764C53.8708 19.2805 53.0452 18.4549 52.435 17.3995C51.8247 16.3441 51.5196 15.1631 51.5196 13.8564ZM55.0088 13.8564C55.0088 14.5241 55.156 15.1272 55.4503 15.6656C55.7519 16.2041 56.1575 16.6277 56.6673 16.9364C57.177 17.2379 57.737 17.3887 58.3473 17.3887C58.9503 17.3887 59.5032 17.2379 60.0057 16.9364C60.5155 16.6277 60.9175 16.2041 61.2119 15.6656C61.5134 15.1272 61.6642 14.5241 61.6642 13.8564C61.6642 13.1959 61.5134 12.5964 61.2119 12.0579C60.9175 11.5195 60.5155 11.0959 60.0057 10.7872C59.5032 10.4784 58.9503 10.3241 58.3473 10.3241C57.737 10.3241 57.177 10.4784 56.6673 10.7872C56.1575 11.0959 55.7519 11.5195 55.4503 12.0579C55.156 12.5964 55.0088 13.1959 55.0088 13.8564ZM66.7688 2.39793C66.7688 2.18255 66.8298 2.01383 66.9519 1.89178C67.0739 1.76973 67.2426 1.7087 67.458 1.7087H69.5688C69.7842 1.7087 69.9529 1.76973 70.075 1.89178C70.197 2.01383 70.258 2.18255 70.258 2.39793V8.49332C70.7175 8.02665 71.2667 7.65691 71.9057 7.38409C72.5519 7.10409 73.216 6.96409 73.898 6.96409C75.0252 6.96409 76.0734 7.26922 77.0426 7.87947C78.0191 8.48973 78.798 9.32255 79.3796 10.3779C79.9611 11.4261 80.2519 12.5856 80.2519 13.8564C80.2519 15.1128 79.9647 16.2723 79.3903 17.3349C78.816 18.3902 78.0478 19.2267 77.0857 19.8441C76.1237 20.4615 75.0898 20.7702 73.9842 20.7702C73.2375 20.7702 72.5052 20.6123 71.7873 20.2964C71.0693 19.9805 70.4949 19.5784 70.0642 19.0902V19.8441C70.0642 20.0595 70.0032 20.2282 69.8811 20.3502C69.759 20.4723 69.5903 20.5333 69.3749 20.5333H67.458C67.2426 20.5333 67.0739 20.4723 66.9519 20.3502C66.8298 20.2282 66.7688 20.0595 66.7688 19.8441V2.39793ZM70.215 13.8564C70.215 14.5456 70.3621 15.1595 70.6565 15.6979C70.9508 16.2364 71.3457 16.6528 71.8411 16.9472C72.3437 17.2415 72.8929 17.3887 73.4888 17.3887C74.0847 17.3887 74.6303 17.2415 75.1257 16.9472C75.6283 16.6528 76.0267 16.2364 76.3211 15.6979C76.6155 15.1595 76.7626 14.5456 76.7626 13.8564C76.7626 13.1743 76.6155 12.5677 76.3211 12.0364C76.0267 11.4979 75.6283 11.0779 75.1257 10.7764C74.6303 10.4749 74.0847 10.3241 73.4888 10.3241C72.8929 10.3241 72.3437 10.4749 71.8411 10.7764C71.3457 11.0779 70.9508 11.4979 70.6565 12.0364C70.3621 12.5677 70.215 13.1743 70.215 13.8564ZM81.6734 13.8564C81.6734 12.5569 81.9785 11.3831 82.5888 10.3349C83.2062 9.27947 84.0355 8.45383 85.0765 7.85793C86.1247 7.26204 87.2662 6.96409 88.5011 6.96409C89.7431 6.96409 90.8811 7.26204 91.9149 7.85793C92.956 8.45383 93.7816 9.27947 94.3919 10.3349C95.0021 11.3831 95.3073 12.5569 95.3073 13.8564C95.3073 15.1631 94.9985 16.3441 94.3811 17.3995C93.7708 18.4477 92.9452 19.2697 91.9042 19.8656C90.8632 20.4687 89.7288 20.7702 88.5011 20.7702C87.2519 20.7702 86.1067 20.4723 85.0657 19.8764C84.0247 19.2805 83.1991 18.4549 82.5888 17.3995C81.9785 16.3441 81.6734 15.1631 81.6734 13.8564ZM85.1626 13.8564C85.1626 14.5241 85.3098 15.1272 85.6042 15.6656C85.9057 16.2041 86.3114 16.6277 86.8211 16.9364C87.3308 17.2379 87.8908 17.3887 88.5011 17.3887C89.1042 17.3887 89.657 17.2379 90.1596 16.9364C90.6693 16.6277 91.0714 16.2041 91.3657 15.6656C91.6673 15.1272 91.818 14.5241 91.818 13.8564C91.818 13.1959 91.6673 12.5964 91.3657 12.0579C91.0714 11.5195 90.6693 11.0959 90.1596 10.7872C89.657 10.4784 89.1042 10.3241 88.5011 10.3241C87.8908 10.3241 87.3308 10.4784 86.8211 10.7872C86.3114 11.0959 85.9057 11.5195 85.6042 12.0579C85.3098 12.5964 85.1626 13.1959 85.1626 13.8564Z" fill="url(#paint0_linear_12340_13820)"/>
<path d="M107.569 19.198C106.636 19.198 105.792 18.9826 105.038 18.5518C104.285 18.1139 103.689 17.5036 103.251 16.721C102.813 15.9385 102.594 15.041 102.594 14.0287C102.594 13.038 102.813 12.1513 103.251 11.3687C103.696 10.579 104.299 9.96515 105.06 9.5272C105.821 9.08207 106.665 8.85951 107.591 8.85951C108.273 8.85951 108.883 8.98156 109.421 9.22566C109.96 9.46976 110.391 9.8072 110.714 10.238V9.37643C110.714 9.26874 110.742 9.18617 110.8 9.12874C110.865 9.06412 110.951 9.03182 111.058 9.03182H112.265C112.372 9.03182 112.455 9.06412 112.512 9.12874C112.577 9.18617 112.609 9.26874 112.609 9.37643V18.681C112.609 18.7887 112.577 18.8749 112.512 18.9395C112.455 18.9969 112.372 19.0257 112.265 19.0257H111.058C110.951 19.0257 110.865 18.9969 110.8 18.9395C110.742 18.8749 110.714 18.7887 110.714 18.681V17.7334C110.398 18.1928 109.967 18.5518 109.421 18.8103C108.876 19.0687 108.258 19.198 107.569 19.198ZM104.532 14.0287C104.532 14.6749 104.665 15.2564 104.931 15.7734C105.196 16.2831 105.559 16.6816 106.018 16.9687C106.485 17.2487 107.002 17.3887 107.569 17.3887C108.158 17.3887 108.686 17.2631 109.152 17.0118C109.626 16.7534 109.996 16.3728 110.261 15.8703C110.534 15.3605 110.671 14.7467 110.671 14.0287C110.671 13.3036 110.534 12.6898 110.261 12.1872C109.996 11.6846 109.63 11.3077 109.163 11.0564C108.696 10.798 108.165 10.6687 107.569 10.6687C107.052 10.6687 106.56 10.798 106.094 11.0564C105.634 11.3149 105.257 11.699 104.963 12.2087C104.676 12.7113 104.532 13.318 104.532 14.0287ZM119.114 19.198C118.217 19.198 117.395 18.9826 116.648 18.5518C115.908 18.1139 115.323 17.5036 114.893 16.721C114.462 15.9385 114.246 15.041 114.246 14.0287C114.246 13.038 114.465 12.1513 114.903 11.3687C115.341 10.579 115.934 9.96515 116.68 9.5272C117.427 9.08207 118.245 8.85951 119.136 8.85951C119.832 8.85951 120.449 8.98156 120.988 9.22566C121.526 9.46976 121.957 9.8072 122.28 10.238V5.26258C122.28 5.15489 122.309 5.07233 122.366 5.01489C122.431 4.95028 122.517 4.91797 122.625 4.91797H123.874C123.982 4.91797 124.064 4.95028 124.122 5.01489C124.186 5.07233 124.219 5.15489 124.219 5.26258V18.681C124.219 18.7887 124.186 18.8749 124.122 18.9395C124.064 18.9969 123.982 19.0257 123.874 19.0257H122.646C122.539 19.0257 122.453 18.9969 122.388 18.9395C122.331 18.8749 122.302 18.7887 122.302 18.681V17.798C121.993 18.2287 121.562 18.5698 121.009 18.821C120.457 19.0723 119.825 19.198 119.114 19.198ZM116.185 14.0287C116.185 14.6749 116.318 15.2564 116.583 15.7734C116.849 16.2831 117.212 16.6816 117.671 16.9687C118.138 17.2487 118.655 17.3887 119.222 17.3887C119.811 17.3887 120.338 17.2631 120.805 17.0118C121.279 16.7534 121.648 16.3728 121.914 15.8703C122.187 15.3605 122.323 14.7467 122.323 14.0287C122.323 13.3036 122.187 12.6898 121.914 12.1872C121.648 11.6846 121.282 11.3077 120.816 11.0564C120.349 10.798 119.818 10.6687 119.222 10.6687C118.705 10.6687 118.213 10.798 117.746 11.0564C117.287 11.3149 116.91 11.699 116.616 12.2087C116.328 12.7113 116.185 13.318 116.185 14.0287ZM130.294 19.198C129.059 19.198 128.058 18.9251 127.289 18.3795C126.521 17.8339 126.022 17.0657 125.792 16.0749C125.771 15.9672 125.789 15.881 125.846 15.8164C125.911 15.7446 126.001 15.7087 126.116 15.7087H127.365C127.551 15.7087 127.688 15.8021 127.774 15.9887C127.982 16.4985 128.28 16.8646 128.668 17.0872C129.056 17.3026 129.612 17.4103 130.337 17.4103C130.955 17.4103 131.432 17.3134 131.769 17.1195C132.107 16.9185 132.276 16.6277 132.276 16.2472C132.276 15.96 132.179 15.7267 131.985 15.5472C131.791 15.3677 131.507 15.2241 131.134 15.1164C130.761 15.0087 130.272 14.9118 129.669 14.8257C128.384 14.6462 127.433 14.3267 126.816 13.8672C126.205 13.4077 125.9 12.7436 125.9 11.8749C125.9 11.3005 126.062 10.7836 126.385 10.3241C126.715 9.86464 127.171 9.50566 127.752 9.2472C128.341 8.98874 129.009 8.85951 129.756 8.85951C130.904 8.85951 131.852 9.13233 132.599 9.67797C133.352 10.2236 133.833 10.9703 134.042 11.918C134.063 12.0328 134.045 12.1226 133.988 12.1872C133.93 12.2518 133.841 12.2841 133.719 12.2841H132.512C132.419 12.2841 132.34 12.2626 132.276 12.2195C132.218 12.1764 132.168 12.1046 132.125 12.0041C131.902 11.5087 131.604 11.1605 131.231 10.9595C130.858 10.7513 130.337 10.6472 129.669 10.6472C129.059 10.6472 128.596 10.7477 128.28 10.9487C127.971 11.1426 127.817 11.4298 127.817 11.8103C127.817 12.1621 127.993 12.4205 128.345 12.5857C128.704 12.7508 129.21 12.8872 129.863 12.9949C130.832 13.16 131.615 13.3431 132.211 13.5441C132.814 13.7451 133.299 14.0575 133.665 14.481C134.031 14.8975 134.214 15.4646 134.214 16.1826C134.214 16.7641 134.052 17.2846 133.729 17.7441C133.406 18.2036 132.947 18.5626 132.351 18.821C131.755 19.0723 131.069 19.198 130.294 19.198Z" fill="black"/>
</g>
<defs>
<linearGradient id="paint0_linear_12340_13820" x1="227.939" y1="19.0256" x2="4.38336" y2="19.0257" gradientUnits="userSpaceOnUse">
<stop stop-color="#8800F8"/>
<stop offset="1" stop-color="#05A6FF"/>
</linearGradient>
<clipPath id="clip0_12340_13820">
<rect width="134.256" height="28" fill="white"/>
</clipPath>
</defs>
</svg>
